<svg width="32" height="32" viewBox="0 0 32 32" fill="none" xmlns="http://www.w3.org/2000/svg">
<path d="M21.3334 2.66681C20.2288 2.66681 19.3334 3.56224 19.3334 4.66681C19.3334 5.77138 20.2288 6.66681 21.3334 6.66681H24C25.1046 6.66681 26 5.77138 26 4.66681C26 3.56224 25.1046 2.66681 24 2.66681H21.3334Z" fill="#FF2DE0" style="fill:#FF2DE0;fill:color(display-p3 1.0000 0.1765 0.8784);fill-opacity:1;"/>
<path fill-rule="evenodd" clip-rule="evenodd" d="M22.7148 8.00014H22.6185C21.6387 8.00013 20.8336 8.00012 20.1791 8.04639C19.5037 8.09414 18.8796 8.19633 18.2894 8.45803C16.8992 9.07452 15.8383 10.2552 15.3735 11.7031C15.1761 12.3178 15.141 12.9492 15.1655 13.6259C15.1892 14.2816 15.275 15.0821 15.3794 16.0564L16.4743 26.2754C16.5067 26.5782 16.5386 26.8763 16.5856 27.1285C16.6378 27.4078 16.7246 27.7313 16.9191 28.0514C17.1914 28.4995 17.5896 28.8574 18.0642 29.0804C18.4032 29.2396 18.7341 29.2916 19.0174 29.3136C19.2732 29.3336 19.5729 29.3335 19.8774 29.3335H25.4559C25.7604 29.3335 26.0602 29.3336 26.316 29.3136C26.5993 29.2916 26.9302 29.2396 27.2692 29.0804C27.7437 28.8574 28.142 28.4995 28.4143 28.0514C28.6088 27.7313 28.6956 27.4078 28.7478 27.1285C28.7948 26.8763 28.8267 26.5782 28.8591 26.2754L29.954 16.0563C30.0584 15.0821 30.1442 14.2815 30.1679 13.6259C30.1924 12.9492 30.1573 12.3178 29.9599 11.7031C29.495 10.2552 28.4341 9.07452 27.0439 8.45803C26.4538 8.19633 25.8297 8.09414 25.1543 8.04639C24.4998 8.00012 23.6947 8.00013 22.7148 8.00014ZM19.3705 10.8958C19.5547 10.814 19.8282 10.7445 20.3672 10.7064C20.9164 10.6676 21.6268 10.6668 22.6667 10.6668C23.7066 10.6668 24.417 10.6676 24.9662 10.7064C25.5052 10.7445 25.7787 10.814 25.9629 10.8958C26.658 11.204 27.1885 11.7943 27.4209 12.5183C27.4825 12.7102 27.5225 12.9896 27.503 13.5295C27.4831 14.0797 27.4082 14.7862 27.2974 15.8202L26.2118 25.952C26.1735 26.3096 26.152 26.5019 26.1263 26.6393L26.1236 26.6538L26.1089 26.655C25.9695 26.6659 25.776 26.6668 25.4164 26.6668H19.917C19.5574 26.6668 19.3639 26.6659 19.2245 26.655L19.2098 26.6538L19.2071 26.6393C19.1814 26.5019 19.1599 26.3096 19.1216 25.952L18.036 15.8202C17.9252 14.7862 17.8503 14.0797 17.8304 13.5295C17.8109 12.9896 17.8509 12.7102 17.9125 12.5183C18.1449 11.7943 18.6754 11.204 19.3705 10.8958Z" fill="#FF2DE0" style="fill:#FF2DE0;fill:color(display-p3 1.0000 0.1765 0.8784);fill-opacity:1;"/>
<path fill-rule="evenodd" clip-rule="evenodd" d="M7.94379 16.0001H8.0563C8.37873 16.0001 8.61688 16.0001 8.8267 16.0165C11.569 16.232 13.6976 18.4978 13.7416 21.2482C13.7449 21.4586 13.73 21.6963 13.7099 22.0181L13.4533 26.1237C13.4335 26.4406 13.4141 26.7512 13.3766 27.014C13.3352 27.3042 13.2592 27.6428 13.0683 27.9801C12.8022 28.4504 12.3994 28.8288 11.9134 29.0651C11.5649 29.2345 11.2222 29.2893 10.93 29.3125C10.6653 29.3336 10.3542 29.3335 10.0367 29.3335H5.96342C5.64598 29.3335 5.3348 29.3336 5.07013 29.3125C4.77792 29.2893 4.43524 29.2345 4.08671 29.0651C3.60068 28.8288 3.19792 28.4504 2.93178 27.9801C2.74092 27.6428 2.66491 27.3042 2.62349 27.014C2.58597 26.7512 2.5666 26.4406 2.54683 26.1238L2.29023 22.0181C2.27006 21.6963 2.25517 21.4586 2.25853 21.2482C2.30253 18.4978 4.4311 16.232 7.17339 16.0165C7.38321 16.0001 7.62136 16.0001 7.94379 16.0001ZM8.00005 18.6668C7.59698 18.6668 7.47331 18.6679 7.38229 18.675C6.01114 18.7828 4.94686 19.9156 4.92486 21.2908C4.9234 21.3821 4.93007 21.5056 4.95521 21.9079L5.20577 25.9167C5.2291 26.2901 5.24273 26.4924 5.2634 26.6372L5.26572 26.6529L5.28154 26.6542C5.42737 26.6658 5.63009 26.6668 6.00421 26.6668H9.99588C10.37 26.6668 10.5727 26.6658 10.7185 26.6542L10.7344 26.6529L10.7367 26.6372C10.7574 26.4924 10.771 26.2901 10.7943 25.9167L11.0449 21.9079C11.07 21.5056 11.0767 21.3821 11.0752 21.2908C11.0532 19.9156 9.98895 18.7828 8.6178 18.675C8.52678 18.6679 8.40311 18.6668 8.00005 18.6668Z" fill="#FF2DE0" style="fill:#FF2DE0;fill:color(display-p3 1.0000 0.1765 0.8784);fill-opacity:1;"/>
<path d="M8.53337 14.6668H7.46671C6.71997 14.6668 6.3466 14.6668 6.06139 14.5214C5.8105 14.3936 5.60653 14.1896 5.4787 13.9388C5.33337 13.6535 5.33337 13.2802 5.33337 12.5334V10.3015C5.33337 9.94525 5.33337 9.76713 5.37669 9.60137C5.41507 9.45447 5.47827 9.31521 5.56354 9.18959C5.65976 9.04784 5.79381 8.93055 6.06189 8.69598L7.12856 7.76264C8.25233 6.77935 8.81421 6.2877 9.29079 6.27247C9.70489 6.25924 10.1016 6.43926 10.3643 6.75961C10.6667 7.1283 10.6667 7.87491 10.6667 9.36814V12.5334C10.6667 13.2802 10.6667 13.6535 10.5214 13.9388C10.3936 14.1896 10.1896 14.3936 9.93869 14.5214C9.65348 14.6668 9.28011 14.6668 8.53337 14.6668Z" fill="#FF2DE0" style="fill:#FF2DE0;fill:color(display-p3 1.0000 0.1765 0.8784);fill-opacity:1;"/>
</svg>
