<svg width="32" height="32" viewBox="0 0 32 32" fill="none" xmlns="http://www.w3.org/2000/svg">
<path d="M7.50986 6.94758C8.03319 6.42952 8.03745 5.58531 7.51939 5.06199C7.00132 4.53866 6.15712 4.5344 5.63379 5.05246C-0.100262 10.7289 -0.100262 19.9378 5.63379 25.6142C6.15712 26.1323 7.00132 26.128 7.51939 25.6047C8.03745 25.0814 8.03319 24.2372 7.50986 23.7191C2.82994 19.0862 2.82994 11.5805 7.50986 6.94758Z" fill="#2C98E1" style="fill:#2C98E1;fill:color(display-p3 0.1725 0.5961 0.8824);fill-opacity:1;"/>
<path d="M26.366 5.05246C25.8427 4.5344 24.9985 4.53866 24.4805 5.06199C23.9624 5.58531 23.9667 6.42952 24.49 6.94758C29.1699 11.5805 29.1699 19.0862 24.49 23.7191C23.9667 24.2372 23.9624 25.0814 24.4805 25.6047C24.9985 26.128 25.8427 26.1323 26.366 25.6142C32.1001 19.9378 32.1001 10.7289 26.366 5.05246Z" fill="#2C98E1" style="fill:#2C98E1;fill:color(display-p3 0.1725 0.5961 0.8824);fill-opacity:1;"/>
<path d="M17.3333 18.3893C18.5105 17.875 19.3333 16.7002 19.3333 15.3334C19.3333 13.4924 17.8409 12 15.9999 12C14.159 12 12.6666 13.4924 12.6666 15.3334C12.6666 16.7002 13.4893 17.875 14.6666 18.3893V30C14.6666 30.7364 15.2635 31.3334 15.9999 31.3334C16.7363 31.3334 17.3333 30.7364 17.3333 30V18.3893Z" fill="#2C98E1" style="fill:#2C98E1;fill:color(display-p3 0.1725 0.5961 0.8824);fill-opacity:1;"/>
<path d="M20.714 8.7141C21.2347 8.1934 22.0789 8.1934 22.5996 8.7141C26.2445 12.359 26.2445 18.2685 22.5996 21.9134C22.0789 22.4341 21.2347 22.4341 20.714 21.9134C20.1933 21.3927 20.1933 20.5485 20.714 20.0278C23.3175 17.4243 23.3175 13.2032 20.714 10.5997C20.1933 10.079 20.1933 9.2348 20.714 8.7141Z" fill="#2C98E1" style="fill:#2C98E1;fill:color(display-p3 0.1725 0.5961 0.8824);fill-opacity:1;"/>
<path d="M11.2859 8.7141C11.8066 9.2348 11.8066 10.079 11.2859 10.5997C8.68238 13.2032 8.68238 17.4243 11.2859 20.0278C11.8066 20.5485 11.8066 21.3927 11.2859 21.9134C10.7652 22.4341 9.92095 22.4341 9.40026 21.9134C5.75536 18.2685 5.75536 12.359 9.40026 8.7141C9.92095 8.1934 10.7652 8.1934 11.2859 8.7141Z" fill="#2C98E1" style="fill:#2C98E1;fill:color(display-p3 0.1725 0.5961 0.8824);fill-opacity:1;"/>
</svg>
