<svg width="32" height="32" viewBox="0 0 32 32" fill="none" xmlns="http://www.w3.org/2000/svg">
<path fill-rule="evenodd" clip-rule="evenodd" d="M9.33335 9.33335V6.66667C9.33335 2.98477 12.3181 0 16 0C19.6819 0 22.6667 2.98477 22.6667 6.66667V9.33334L26.8808 9.33334C27.0514 9.33328 27.2525 9.3332 27.4286 9.34802C27.6304 9.365 27.9247 9.40879 28.2289 9.57272C28.6192 9.78305 28.9285 10.1171 29.1083 10.5224C29.2484 10.8383 29.2695 11.135 29.271 11.3376C29.2722 11.5143 29.2567 11.7148 29.2436 11.885L28.4466 22.2457C28.3699 23.2427 28.3065 24.0681 28.2011 24.7399C28.0913 25.4396 27.9221 26.0784 27.5777 26.6731C27.0412 27.5993 26.2384 28.3427 25.2738 28.8066C24.6544 29.1044 24.0045 29.224 23.2985 29.2798C22.6206 29.3334 21.7927 29.3334 20.7927 29.3333H11.2074C10.2074 29.3334 9.37948 29.3334 8.70158 29.2798C7.99554 29.224 7.34562 29.1044 6.72628 28.8066C5.76162 28.3427 4.95885 27.5993 4.42237 26.6731C4.07794 26.0784 3.90877 25.4396 3.799 24.7399C3.6936 24.0681 3.63012 23.2427 3.55344 22.2456L2.75645 11.8849C2.74331 11.7148 2.72781 11.5143 2.72908 11.3376C2.73053 11.135 2.75162 10.8383 2.89173 10.5224C3.07151 10.1171 3.38086 9.78305 3.77117 9.57272C4.07537 9.40879 4.36963 9.365 4.57148 9.34802C4.74755 9.3332 4.9486 9.33328 5.11922 9.33334L9.33335 9.33335ZM12 16C12 16.7364 11.4031 17.3333 10.6667 17.3333C9.93031 17.3333 9.33335 16.7364 9.33335 16V12H5.43986L6.20822 21.9886C6.28997 23.0513 6.34631 23.7712 6.43344 24.3266C6.51804 24.8658 6.6174 25.1423 6.72993 25.3365C6.99817 25.7997 7.39955 26.1714 7.88189 26.4033C8.08422 26.5006 8.36751 26.5784 8.91162 26.6214C9.47203 26.6657 10.1941 26.6667 11.26 26.6667H20.7401C21.8059 26.6667 22.528 26.6657 23.0884 26.6214C23.6325 26.5784 23.9158 26.5006 24.1182 26.4033C24.6005 26.1714 25.0019 25.7997 25.2701 25.3365C25.3827 25.1423 25.482 24.8658 25.5666 24.3266C25.6537 23.7712 25.7101 23.0513 25.7918 21.9886L26.5602 12H22.6667V16C22.6667 16.7364 22.0697 17.3333 21.3334 17.3333C20.597 17.3333 20 16.7364 20 16V12H12V16ZM20 9.33334V6.66667C20 4.45753 18.2092 2.66667 16 2.66667C13.7909 2.66667 12 4.45753 12 6.66667V9.33335L20 9.33334Z" fill="#00CB44" style="fill:#00CB44;fill:color(display-p3 0.0000 0.7956 0.2652);fill-opacity:1;"/>
</svg>
