<svg width="32" height="32" viewBox="0 0 32 32" fill="none" xmlns="http://www.w3.org/2000/svg">
<path d="M21.3334 20C21.3334 18.8954 22.2288 18 23.3334 18H23.3467C24.4513 18 25.3467 18.8954 25.3467 20C25.3467 21.1046 24.4513 22 23.3467 22H23.3334C22.2288 22 21.3334 21.1046 21.3334 20Z" fill="#B57800" style="fill:#B57800;fill:color(display-p3 0.7088 0.4725 0.0000);fill-opacity:1;"/>
<path d="M8.66675 18C7.56218 18 6.66675 18.8954 6.66675 20C6.66675 21.1046 7.56218 22 8.66675 22H8.68008C9.78465 22 10.6801 21.1046 10.6801 20C10.6801 18.8954 9.78465 18 8.68008 18H8.66675Z" fill="#B57800" style="fill:#B57800;fill:color(display-p3 0.7088 0.4725 0.0000);fill-opacity:1;"/>
<path fill-rule="evenodd" clip-rule="evenodd" d="M12.4836 5.33313C11.026 5.33199 9.92927 5.33114 8.96777 5.71706C8.12358 6.0559 7.38008 6.60503 6.80796 7.31224C6.15634 8.11772 5.83464 9.16618 5.40705 10.5597L4.96401 12H2.00008C1.2637 12 0.666748 12.597 0.666748 13.3333C0.666748 14.0697 1.2637 14.6667 2.00008 14.6667H3.68384C3.6714 14.6733 3.65884 14.6798 3.64617 14.6862C2.22876 15.3949 1.33341 16.8436 1.33341 18.4283V27.3333C1.33341 28.8061 2.52732 30 4.00008 30C5.47284 30 6.66675 28.8061 6.66675 27.3333V26.6666H25.3334V27.3333C25.3334 28.8061 26.5273 30 28.0001 30C29.4728 30 30.6667 28.8061 30.6667 27.3333V18.4283C30.6667 16.8436 29.7714 15.3949 28.354 14.6862C28.3483 14.6833 28.3427 14.6805 28.3371 14.6776C28.3301 14.674 28.3232 14.6704 28.3163 14.6667H30.0001C30.7365 14.6667 31.3334 14.0697 31.3334 13.3333C31.3334 12.597 30.7365 12 30.0001 12H27.0362L26.5931 10.5597C26.1655 9.16618 25.8438 8.11772 25.1922 7.31224C24.6201 6.60503 23.8766 6.0559 23.0324 5.71706C22.0709 5.33114 20.9742 5.33199 19.5166 5.33313H12.4836ZM9.96108 8.19182C10.3811 8.02322 10.9133 7.99992 12.727 7.99992H19.2732C21.0869 7.99992 21.619 8.02322 22.0391 8.19182C22.4612 8.36124 22.8329 8.63581 23.119 8.98942C23.4037 9.34132 23.5824 9.8431 24.1158 11.5766L25.0337 14.5596C25.3699 15.6524 26.1388 16.56 27.1614 17.0713C27.6754 17.3283 28.0001 17.8536 28.0001 18.4283V23.9999H4.00008V18.4283C4.00008 17.8536 4.32476 17.3283 4.83874 17.0713C5.8614 16.56 6.63024 15.6524 6.96649 14.5596L7.88435 11.5766C8.41771 9.8431 8.59649 9.34132 8.88117 8.98942C9.16723 8.63581 9.53898 8.36124 9.96108 8.19182Z" fill="#B57800" style="fill:#B57800;fill:color(display-p3 0.7088 0.4725 0.0000);fill-opacity:1;"/>
</svg>
