<svg width="32" height="32" viewBox="0 0 32 32" fill="none" xmlns="http://www.w3.org/2000/svg">
<path fill-rule="evenodd" clip-rule="evenodd" d="M15.9999 1.33331C7.89974 1.33331 1.33325 7.8998 1.33325 16C1.33325 24.1002 7.89974 30.6666 15.9999 30.6666C24.1001 30.6666 30.6666 24.1002 30.6666 16C30.6666 7.8998 24.1001 1.33331 15.9999 1.33331ZM8.50967 6.62411C10.5626 4.98194 13.1666 3.99998 15.9999 3.99998C16.2236 3.99998 16.4459 4.0061 16.6666 4.01818C16.6623 7.02865 15.6079 9.79297 13.85 11.9644L8.50967 6.62411ZM11.9643 13.85L6.62405 8.50973C4.98188 10.5626 3.99992 13.1666 3.99992 16C3.99992 16.2237 4.00604 16.446 4.01812 16.6666C7.02859 16.6624 9.79291 15.6079 11.9643 13.85ZM4.46693 19.3263C8.03894 19.2195 11.304 17.891 13.8586 15.7443L16.2556 18.1413C14.1089 20.6959 12.7804 23.961 12.6736 27.533C8.72052 26.3949 5.60502 23.2794 4.46693 19.3263ZM15.7442 13.8587C17.8909 11.3041 19.2194 8.039 19.3263 4.46699C23.2793 5.60508 26.3948 8.72058 27.5329 12.6736C23.9609 12.7805 20.6958 14.109 18.1412 16.2557L15.7442 13.8587ZM20.0355 18.1499C22.2069 16.392 24.9712 15.3376 27.9817 15.3333C27.9938 15.554 27.9999 15.7763 27.9999 16C27.9999 18.8333 27.018 21.4373 25.3758 23.4902L20.0355 18.1499ZM18.1499 20.0356C16.392 22.207 15.3375 24.9713 15.3333 27.9818C15.5539 27.9939 15.7762 28 15.9999 28C18.8333 28 21.4373 27.018 23.4902 25.3758L18.1499 20.0356Z" fill="#FF4E2F" style="fill:#FF4E2F;fill:color(display-p3 1.0000 0.3059 0.1843);fill-opacity:1;"/>
</svg>
