<svg width="32" height="32" viewBox="0 0 32 32" fill="none" xmlns="http://www.w3.org/2000/svg">
<path d="M22.4252 14.0194L23.368 14.9622L22.4252 14.0194ZM22.6265 14.0292L21.6128 14.8955L22.6265 14.0292ZM14.0291 22.6266L13.163 23.6402L14.0291 22.6266ZM14.0193 22.4253L14.9621 23.3681L14.0193 22.4253ZM9.33315 17.9244L8.33357 18.8068L9.33315 17.9244ZM7.76832 24.0293L8.2205 25.2836L7.76832 24.0293ZM7.97083 24.2318L6.71652 23.7796L7.97083 24.2318ZM17.9243 9.33322L17.0419 10.3328L17.9243 9.33322ZM17.9324 9.53296L18.8752 10.4758L17.9324 9.53296ZM24.0292 7.76822L25.2835 8.22035L24.0292 7.76822ZM24.2317 7.97071L23.7795 6.71639L24.2317 7.97071ZM22.9205 6.47621C22.9205 6.77342 22.8687 7.05558 22.7749 7.31608L25.2835 8.22035C25.4805 7.674 25.5872 7.0861 25.5872 6.47621H22.9205ZM20.4443 4C21.8119 4 22.9205 5.10864 22.9205 6.47621H25.5872C25.5872 3.63588 23.2846 1.33333 20.4443 1.33333V4ZM17.9681 6.47621C17.9681 5.10864 19.0767 4 20.4443 4V1.33333C17.604 1.33333 15.3014 3.63588 15.3014 6.47621H17.9681ZM18.8067 8.33362C18.2904 7.87794 17.9681 7.21555 17.9681 6.47621H15.3014C15.3014 8.01233 15.9766 9.39241 17.0419 10.3328L18.8067 8.33362ZM10.4757 18.8753L18.8752 10.4758L16.9896 8.59015L8.59008 16.9897L10.4757 18.8753ZM6.47621 17.9683C7.21553 17.9683 7.87789 18.2906 8.33357 18.8068L10.3327 17.042C9.39231 15.9767 8.01227 15.3016 6.47621 15.3016V17.9683ZM4 20.4445C4 19.0769 5.10864 17.9683 6.47621 17.9683V15.3016C3.63588 15.3016 1.33333 17.6041 1.33333 20.4445H4ZM6.47621 22.9207C5.10864 22.9207 4 21.8121 4 20.4445H1.33333C1.33333 23.2848 3.63588 25.5874 6.47621 25.5874V22.9207ZM7.31614 22.775C7.05563 22.8689 6.77344 22.9207 6.47621 22.9207V25.5874C7.08615 25.5874 7.6741 25.4806 8.2205 25.2836L7.31614 22.775ZM9.07943 25.524C9.07943 25.2267 9.13122 24.9445 9.22514 24.684L6.71652 23.7796C6.51953 24.326 6.41276 24.914 6.41276 25.524H9.07943ZM11.5556 28.0002C10.1881 28.0002 9.07943 26.8916 9.07943 25.524H6.41276C6.41276 28.3643 8.71531 30.6669 11.5556 30.6669V28.0002ZM14.0319 25.524C14.0319 26.8916 12.9232 28.0002 11.5556 28.0002V30.6669C14.396 30.6669 16.6985 28.3643 16.6985 25.524H14.0319ZM13.163 23.6402C13.6969 24.0964 14.0319 24.7704 14.0319 25.524H16.6985C16.6985 23.9578 15.9968 22.5541 14.8953 21.6129L13.163 23.6402ZM21.4824 13.0766L13.0765 21.4825L14.9621 23.3681L23.368 14.9622L21.4824 13.0766ZM25.5237 14.0318C24.7702 14.0318 24.0963 13.6968 23.6401 13.163L21.6128 14.8955C22.5541 15.9968 23.9577 16.6984 25.5237 16.6984V14.0318ZM28 11.5556C28 12.9231 26.8913 14.0318 25.5237 14.0318V16.6984C28.3641 16.6984 30.6666 14.3959 30.6666 11.5556H28ZM25.5237 9.07935C26.8913 9.07935 28 10.188 28 11.5556H30.6666C30.6666 8.71522 28.3641 6.41268 25.5237 6.41268V9.07935ZM24.6838 9.22504C24.9444 9.13113 25.2265 9.07935 25.5237 9.07935V6.41268C24.9138 6.41268 24.3259 6.51943 23.7795 6.71639L24.6838 9.22504ZM23.368 14.9622C22.8501 15.4801 22.0431 15.399 21.6128 14.8955L23.6401 13.163C23.106 12.5381 22.1132 12.4457 21.4824 13.0766L23.368 14.9622ZM14.8953 21.6129C15.3989 22.0432 15.48 22.8502 14.9621 23.3681L13.0765 21.4825C12.4456 22.1134 12.538 23.1062 13.163 23.6402L14.8953 21.6129ZM8.59008 16.9897C9.10206 16.4777 9.89885 16.5505 10.3327 17.042L8.33357 18.8068C8.87192 19.4166 9.85208 19.4989 10.4757 18.8753L8.59008 16.9897ZM8.2205 25.2836C7.69567 25.4728 7.23149 25.2574 6.9871 25.013C6.74271 24.7686 6.52731 24.3044 6.71652 23.7796L9.22514 24.684C9.45699 24.0409 9.19947 23.4542 8.87273 23.1274C8.546 22.8007 7.95924 22.5432 7.31614 22.775L8.2205 25.2836ZM17.0419 10.3328C16.5504 9.89896 16.4776 9.10215 16.9896 8.59015L18.8752 10.4758C19.4989 9.85214 19.4165 8.87196 18.8067 8.33362L17.0419 10.3328ZM22.7749 7.31608C22.5431 7.95914 22.8006 8.54588 23.1273 8.87262C23.454 9.19936 24.0408 9.45685 24.6838 9.22504L23.7795 6.71639C24.3043 6.52721 24.7685 6.74258 25.0129 6.98698C25.2573 7.23138 25.4727 7.69556 25.2835 8.22035L22.7749 7.31608Z" fill="#FF4E2F" style="fill:#FF4E2F;fill:color(display-p3 1.0000 0.3059 0.1843);fill-opacity:1;"/>
</svg>
