<svg width="33" height="32" viewBox="0 0 33 32" fill="none" xmlns="http://www.w3.org/2000/svg">
<path d="M4.5 3.66669V11.3334C4.5 12.5733 4.5 13.1933 4.6363 13.702C5.00616 15.0823 6.08436 16.1605 7.46472 16.5304C7.97339 16.6667 8.59337 16.6667 9.83333 16.6667V16.6667C11.0733 16.6667 11.6933 16.6667 12.2019 16.5304C13.5823 16.1605 14.6605 15.0823 15.0304 13.702C15.1667 13.1933 15.1667 12.5733 15.1667 11.3334V3.66669" stroke="#B57800" style="stroke:#B57800;stroke:color(display-p3 0.7088 0.4725 0.0000);stroke-opacity:1;" stroke-width="2.66667" stroke-linecap="round"/>
<path d="M9.83325 3.66669L9.83325 17" stroke="#B57800" style="stroke:#B57800;stroke:color(display-p3 0.7088 0.4725 0.0000);stroke-opacity:1;" stroke-width="2.66667" stroke-linecap="round"/>
<path d="M25.6989 28.6666C25.6989 29.4398 26.3257 30.0666 27.0989 30.0666C27.8721 30.0666 28.4989 29.4398 28.4989 28.6666H25.6989ZM28.4989 28.6666V21.3333H25.6989V28.6666H28.4989Z" fill="#B57800" style="fill:#B57800;fill:color(display-p3 0.7088 0.4725 0.0000);fill-opacity:1;"/>
<path d="M9.83325 28.6667V16.6667" stroke="#B57800" style="stroke:#B57800;stroke:color(display-p3 0.7088 0.4725 0.0000);stroke-opacity:1;" stroke-width="2.8" stroke-linecap="round"/>
<path d="M27.1667 3.88002V22.6849C27.1667 22.7905 27.1667 22.8433 27.1445 22.8768C27.1251 22.906 27.0949 22.9265 27.0605 22.9336C27.0211 22.9418 26.9721 22.9222 26.8741 22.883L20.6341 20.387C20.5857 20.3676 20.5615 20.3579 20.5437 20.3418C20.5279 20.3275 20.5158 20.3096 20.5084 20.2897C20.5 20.2671 20.5 20.2413 20.5 20.1895V13.6667C20.5 7.14222 23.6927 3.8104 26.9534 3.67124C27.0248 3.66819 27.0605 3.66666 27.0903 3.68072C27.1158 3.69275 27.1382 3.71431 27.1514 3.73923C27.1667 3.76837 27.1667 3.80558 27.1667 3.88002Z" stroke="#B57800" style="stroke:#B57800;stroke:color(display-p3 0.7088 0.4725 0.0000);stroke-opacity:1;" stroke-width="2.66667" stroke-linecap="round"/>
</svg>
