<svg width="24" height="24" viewBox="0 0 24 24" fill="none" xmlns="http://www.w3.org/2000/svg">
<style>
:root {
    --accent-danger: #FF7033;
    --accent-danger: color(display-p3 1 0.44 0.2);
}

@media (prefers-color-scheme: dark) {
    :root {
        --accent-danger: #CC3D00;
        --accent-danger: color(display-p3 0.8 0.24 0);
    }
}  
</style>
<path fill-rule="evenodd" clip-rule="evenodd" d="M13.4319 1H10.5681C10.3157 0.999973 10.0699 0.999943 9.86177 1.01695C9.63318 1.03563 9.36344 1.07969 9.09202 1.21799C8.71569 1.40974 8.40973 1.7157 8.21799 2.09202C8.07969 2.36345 8.03562 2.63318 8.01695 2.86178C7.99994 3.06993 7.99997 3.31573 8 3.56811L8 4.00001H3C2.44772 4.00001 2 4.44772 2 5.00001C2 5.55229 2.44772 6.00001 3 6.00001H4.06055L4.72314 16.6015C4.77054 17.3601 4.80976 17.9877 4.88268 18.4986C4.9586 19.0304 5.08054 19.5166 5.33705 19.9699C5.73626 20.6754 6.34041 21.243 7.06944 21.5974C7.53787 21.8251 8.03071 21.9165 8.56624 21.9591C9.08069 22 9.70956 22 10.4696 22H13.5304C14.2904 22 14.9193 22 15.4338 21.9591C15.9693 21.9165 16.4621 21.8251 16.9306 21.5974C17.6596 21.243 18.2637 20.6754 18.663 19.9699C18.9195 19.5166 19.0414 19.0304 19.1173 18.4986C19.1902 17.9877 19.2295 17.3601 19.2768 16.6017L19.9395 6.00001H21C21.5523 6.00001 22 5.55229 22 5.00001C22 4.44772 21.5523 4.00001 21 4.00001H16L16 3.56812C16 3.31574 16.0001 3.06994 15.9831 2.86178C15.9644 2.63318 15.9203 2.36345 15.782 2.09202C15.5903 1.7157 15.2843 1.40974 14.908 1.21799C14.6366 1.07969 14.3668 1.03563 14.1382 1.01695C13.9301 0.999943 13.6843 0.999973 13.4319 1ZM13.9897 3.02464C13.9992 3.14122 14 3.30348 14 3.60001V4.00001H10V3.60001C10 3.30348 10.0008 3.14122 10.0103 3.02464L10.0114 3.01145L10.0246 3.01031C10.1412 3.00078 10.3035 3.00001 10.6 3.00001H13.4C13.6965 3.00001 13.8588 3.00078 13.9754 3.01031L13.9886 3.01145L13.9897 3.02464Z" style="fill:var(--accent-danger);fill-opacity:1;"/>
</svg>
