<svg width="32" height="32" viewBox="0 0 32 32" fill="none" xmlns="http://www.w3.org/2000/svg">
<path d="M10.8688 18.6666C9.80475 18.6666 9.08485 19.7732 9.54219 20.751C12.0883 26.1941 19.9116 26.194 22.4576 20.751C22.915 19.7732 22.1951 18.6666 21.131 18.6666H10.8688Z" fill="#FF2DE0" style="fill:#FF2DE0;fill:color(display-p3 1.0000 0.1765 0.8784);fill-opacity:1;"/>
<path d="M8.66659 13.3333C8.66659 12.2287 9.56202 11.3333 10.6666 11.3333H10.6799C11.7845 11.3333 12.6799 12.2287 12.6799 13.3333C12.6799 14.4379 11.7845 15.3333 10.6799 15.3333H10.6666C9.56202 15.3333 8.66659 14.4379 8.66659 13.3333Z" fill="#FF2DE0" style="fill:#FF2DE0;fill:color(display-p3 1.0000 0.1765 0.8784);fill-opacity:1;"/>
<path d="M21.3333 11.3333C20.2287 11.3333 19.3333 12.2287 19.3333 13.3333C19.3333 14.4379 20.2287 15.3333 21.3333 15.3333H21.3466C22.4512 15.3333 23.3466 14.4379 23.3466 13.3333C23.3466 12.2287 22.4512 11.3333 21.3466 11.3333H21.3333Z" fill="#FF2DE0" style="fill:#FF2DE0;fill:color(display-p3 1.0000 0.1765 0.8784);fill-opacity:1;"/>
<path fill-rule="evenodd" clip-rule="evenodd" d="M1.33325 16C1.33325 7.8998 7.89974 1.33331 15.9999 1.33331C24.1001 1.33331 30.6666 7.8998 30.6666 16C30.6666 24.1002 24.1001 30.6666 15.9999 30.6666C7.89974 30.6666 1.33325 24.1002 1.33325 16ZM15.9999 3.99998C9.3725 3.99998 3.99992 9.37256 3.99992 16C3.99992 22.6274 9.3725 28 15.9999 28C22.6273 28 27.9999 22.6274 27.9999 16C27.9999 9.37256 22.6273 3.99998 15.9999 3.99998Z" fill="#FF2DE0" style="fill:#FF2DE0;fill:color(display-p3 1.0000 0.1765 0.8784);fill-opacity:1;"/>
</svg>
