<svg width="32" height="32" viewBox="0 0 32 32" fill="none" xmlns="http://www.w3.org/2000/svg">
<path fill-rule="evenodd" clip-rule="evenodd" d="M15.528 5.15783C18.6522 2.03364 23.7175 2.03364 26.8417 5.15783C29.9659 8.28203 29.9659 13.3473 26.8417 16.4715L16.4708 26.8424C13.3466 29.9666 8.28125 29.9666 5.15706 26.8424C2.03287 23.7182 2.03287 18.6529 5.15706 15.5287L15.528 5.15783ZM24.9561 7.04345C22.8733 4.96065 19.4964 4.96065 17.4136 7.04345L13.1709 11.2862L20.7133 18.8286L24.9561 14.5859C27.0388 12.5031 27.0388 9.12625 24.9561 7.04345ZM18.8277 20.7143L11.2852 13.1718L7.04268 17.4143C4.95988 19.4971 4.95988 22.874 7.04268 24.9568C9.12547 27.0396 12.5024 27.0396 14.5852 24.9568L18.8277 20.7143Z" fill="#2C98E1" style="fill:#2C98E1;fill:color(display-p3 0.1725 0.5961 0.8824);fill-opacity:1;"/>
</svg>
