<svg width="172" height="48" viewBox="0 0 172 48" fill="none" xmlns="http://www.w3.org/2000/svg">
<style>
:root {
    --accent-primary: #0057FF;
    --accent-primary:color(display-p3 0 0.3333 1);
}

@media (prefers-color-scheme: dark) {
    :root {
        --accent-primary: #337EFF;
        --accent-primary: color(display-p3 0.2 0.4947 1);
    }
}
</style>
<g clip-path="url(#clip0_68_68)">
<rect width="48" height="48" rx="10" fill="url(#paint0_radial_68_68)" style=""/>
<path d="M38.003 0H56.0608L34.9452 29.901H24.592L38.003 0ZM19.3913 48C17.7541 48 16.4138 47.6525 15.3704 46.9574C14.3431 46.2902 13.7332 45.3727 13.5406 44.205C13.3961 43.0096 13.7332 41.7029 14.5518 40.285C15.3704 38.8671 16.5422 37.5604 18.0671 36.3649C19.6241 35.1694 21.3014 34.2381 23.0992 33.5708C24.9451 32.8758 26.6867 32.5282 28.3239 32.5282C29.9612 32.5282 31.2694 32.8758 32.2485 33.5708C33.2758 34.2381 33.8617 35.1694 34.0061 36.3649C34.1506 37.5604 33.8135 38.8671 32.9949 40.285C32.1763 41.7029 31.0045 43.0096 29.4796 44.205C27.9708 45.3727 26.3175 46.2902 24.5197 46.9574C22.738 47.6525 21.0286 48 19.3913 48Z" fill="white" style="fill:white;fill-opacity:1;"/>
</g>
<path d="M72.208 35.376C71.632 37.0187 71.0133 38.3627 70.352 39.408C69.712 40.4533 68.8693 41.264 67.824 41.84C66.7787 42.416 65.456 42.704 63.856 42.704C63.152 42.704 62.4267 42.64 61.68 42.512C60.9547 42.4053 60.2827 42.2453 59.664 42.032C59.0667 41.84 58.5653 41.6267 58.16 41.392V31.504C58.992 32.4427 59.9413 33.264 61.008 33.968C62.0747 34.672 62.9387 35.024 63.6 35.024C63.8987 35.024 64.1333 34.9493 64.304 34.8C64.4747 34.6293 64.56 34.416 64.56 34.16V34.096C64.56 33.9893 64.5387 33.872 64.496 33.744C64.4533 33.616 64.4 33.4773 64.336 33.328C64.3147 33.3067 64.304 33.2853 64.304 33.264C64.304 33.2427 64.304 33.232 64.304 33.232L54.64 6.064H63.888L70.512 28.336L66.992 28.72L72.624 6.064H81.84L72.208 35.376ZM96.452 6.064H105.252V42H96.452V6.064ZM99.748 24.56C98.596 26.032 97.2733 27.2267 95.78 28.144C94.308 29.04 92.6013 29.488 90.66 29.488C88.7187 29.488 87.012 29.0507 85.54 28.176C84.0893 27.28 82.9587 25.9573 82.148 24.208C81.3373 22.4373 80.932 20.272 80.932 17.712V6.064H89.732V16.688C89.732 18.3093 90.0627 19.5253 90.724 20.336C91.3853 21.1467 92.292 21.552 93.444 21.552C94.1693 21.552 94.8627 21.4347 95.524 21.2C96.1853 20.944 96.804 20.6133 97.38 20.208C97.9773 19.8027 98.6707 19.2693 99.46 18.608L99.748 24.56ZM106.247 6.064H129.479V14.096H106.247V6.064ZM122.279 8.912V42H113.479V8.912H122.279ZM138.698 6.064V26.64L137.802 26.544L149.771 6.064H155.627V42H147.338V21.424L148.235 21.52L136.266 42H130.41V6.064H138.698ZM156.851 6.064H168.851L166.291 29.008H159.411L156.851 6.064ZM162.899 42.896C161.811 42.896 160.787 42.6293 159.827 42.096C158.888 41.584 158.131 40.88 157.555 39.984C157 39.0667 156.723 38.064 156.723 36.976C156.723 35.888 157 34.8853 157.555 33.968C158.131 33.0507 158.888 32.336 159.827 31.824C160.787 31.2907 161.811 31.024 162.899 31.024C163.987 31.024 164.989 31.2907 165.907 31.824C166.845 32.336 167.592 33.0507 168.147 33.968C168.701 34.8853 168.979 35.888 168.979 36.976C168.979 38.064 168.701 39.0667 168.147 39.984C167.592 40.88 166.845 41.584 165.907 42.096C164.989 42.6293 163.987 42.896 162.899 42.896Z" fill="#337EFF" style="fill:#337EFF;fill:color(display-p3 0.2000 0.4947 1.0000);fill-opacity:1;"/>
<path d="M72.208 35.376C71.632 37.0187 71.0133 38.3627 70.352 39.408C69.712 40.4533 68.8693 41.264 67.824 41.84C66.7787 42.416 65.456 42.704 63.856 42.704C63.152 42.704 62.4267 42.64 61.68 42.512C60.9547 42.4053 60.2827 42.2453 59.664 42.032C59.0667 41.84 58.5653 41.6267 58.16 41.392V31.504C58.992 32.4427 59.9413 33.264 61.008 33.968C62.0747 34.672 62.9387 35.024 63.6 35.024C63.8987 35.024 64.1333 34.9493 64.304 34.8C64.4747 34.6293 64.56 34.416 64.56 34.16V34.096C64.56 33.9893 64.5387 33.872 64.496 33.744C64.4533 33.616 64.4 33.4773 64.336 33.328C64.3147 33.3067 64.304 33.2853 64.304 33.264C64.304 33.2427 64.304 33.232 64.304 33.232L54.64 6.064H63.888L70.512 28.336L66.992 28.72L72.624 6.064H81.84L72.208 35.376ZM96.452 6.064H105.252V42H96.452V6.064ZM99.748 24.56C98.596 26.032 97.2733 27.2267 95.78 28.144C94.308 29.04 92.6013 29.488 90.66 29.488C88.7187 29.488 87.012 29.0507 85.54 28.176C84.0893 27.28 82.9587 25.9573 82.148 24.208C81.3373 22.4373 80.932 20.272 80.932 17.712V6.064H89.732V16.688C89.732 18.3093 90.0627 19.5253 90.724 20.336C91.3853 21.1467 92.292 21.552 93.444 21.552C94.1693 21.552 94.8627 21.4347 95.524 21.2C96.1853 20.944 96.804 20.6133 97.38 20.208C97.9773 19.8027 98.6707 19.2693 99.46 18.608L99.748 24.56ZM106.247 6.064H129.479V14.096H106.247V6.064ZM122.279 8.912V42H113.479V8.912H122.279ZM138.698 6.064V26.64L137.802 26.544L149.771 6.064H155.627V42H147.338V21.424L148.235 21.52L136.266 42H130.41V6.064H138.698ZM156.851 6.064H168.851L166.291 29.008H159.411L156.851 6.064ZM162.899 42.896C161.811 42.896 160.787 42.6293 159.827 42.096C158.888 41.584 158.131 40.88 157.555 39.984C157 39.0667 156.723 38.064 156.723 36.976C156.723 35.888 157 34.8853 157.555 33.968C158.131 33.0507 158.888 32.336 159.827 31.824C160.787 31.2907 161.811 31.024 162.899 31.024C163.987 31.024 164.989 31.2907 165.907 31.824C166.845 32.336 167.592 33.0507 168.147 33.968C168.701 34.8853 168.979 35.888 168.979 36.976C168.979 38.064 168.701 39.0667 168.147 39.984C167.592 40.88 166.845 41.584 165.907 42.096C164.989 42.6293 163.987 42.896 162.899 42.896Z" fill="url(#paint1_radial_68_68)" style=""/>
<defs>
<radialGradient id="paint0_radial_68_68" cx="0" cy="0" r="1" gradientUnits="userSpaceOnUse" gradientTransform="translate(48 -2.86102e-06) rotate(135) scale(67.8822)">
<stop stop-color="#B366FF" style="stop-color:#B366FF;stop-color:color(display-p3 0.7000 0.4000 1.0000);stop-opacity:1;"/>
<stop offset="1" style="stop-color:var(--accent-primary);stop-opacity:1;"/>
</radialGradient>
<radialGradient id="paint1_radial_68_68" cx="0" cy="0" r="1" gradientUnits="userSpaceOnUse" gradientTransform="translate(49.2483 -1.25726e-06) rotate(135) scale(69.6476 67.7949)">
<stop stop-color="#B366FF" style="stop-color:#B366FF;stop-color:color(display-p3 0.7000 0.4000 1.0000);stop-opacity:1;"/>
<stop offset="1" style="stop-color:var(--accent-primary);stop-opacity:1;"/>
</radialGradient>
<clipPath id="clip0_68_68">
<rect width="48" height="48" rx="10" fill="white" style="fill:white;fill-opacity:1;"/>
</clipPath>
</defs>
</svg>
