<svg width="35" height="36" viewBox="0 0 35 36" fill="none" xmlns="http://www.w3.org/2000/svg">
<style>
:root {
    --accent-primary: #0057FF;
    --accent-primary:color(display-p3 0 0.3333 1);
}

@media (prefers-color-scheme: dark) {
    :root {
        --accent-primary: #337EFF;
        --accent-primary: color(display-p3 0.2 0.4947 1);
    }
}
</style>
<g clip-path="url(#clip0_68_80)">
<rect y="0.5" width="35" height="35" rx="12" fill="#337EFF" style="fill:#337EFF;fill:color(display-p3 0.2000 0.4947 1.0000);fill-opacity:1;"/>
<rect y="0.5" width="35" height="35" rx="12" fill="url(#paint0_radial_68_80)" style=""/>
<path d="M10.4395 10.3322C10.9793 10.3322 11.4217 10.6065 11.7765 11.194C12.1464 11.8066 12.3635 12.6913 12.3635 13.636C12.3635 14.5806 12.1464 15.4654 11.7765 16.0779C11.4217 16.6655 10.9793 16.9398 10.4395 16.9398C9.89984 16.9398 9.45744 16.6655 9.10263 16.0779C8.73273 15.4654 8.51562 14.5806 8.51562 13.636C8.51562 12.6913 8.73273 11.8066 9.10263 11.194C9.45744 10.6065 9.89984 10.3322 10.4395 10.3322Z" stroke="black" style="stroke:black;stroke-opacity:1;" stroke-width="2"/>
<path d="M17 21L19.2111 22.1056C19.9482 22.4741 19.9482 23.5259 19.2111 23.8944L17.8944 24.5528C17.5259 24.737 17.5259 25.263 17.8944 25.4472L19.2111 26.1056C19.9482 26.4741 19.9482 27.5259 19.2111 27.8944L17 29" stroke="black" style="stroke:black;stroke-opacity:1;" stroke-width="2" stroke-linecap="round"/>
<path d="M28.0969 13.2563C26.2977 11.8471 22.085 12.1574 21.0376 13.3571" stroke="black" style="stroke:black;stroke-opacity:1;" stroke-width="2" stroke-linecap="round"/>
<path d="M31.0181 9.47208C29.3608 7.56318 24.5207 6.57374 23.019 7.40996" stroke="black" style="stroke:black;stroke-opacity:1;" stroke-width="2" stroke-linecap="round"/>
<path d="M4.16602 9.16919C4.81223 6.72523 8.72066 3.70368 10.4371 3.79239" stroke="black" style="stroke:black;stroke-opacity:1;" stroke-width="2" stroke-linecap="round"/>
<path d="M25.7133 31C28.4784 29.1659 36.7082 25.9676 35.951 21.773C35.5662 19.6413 33.2739 18.3943 31.2179 19.1983L29.5099 19.8661L28.4842 18.4625C27.0992 16.567 24.2401 16.5031 22.7679 18.3347C20.2668 21.4464 24.5785 27.9748 25.7133 31Z" stroke="black" style="stroke:black;stroke-opacity:1;" stroke-width="2"/>
</g>
<defs>
<radialGradient id="paint0_radial_68_80" cx="0" cy="0" r="1" gradientUnits="userSpaceOnUse" gradientTransform="translate(35 0.499998) rotate(135) scale(49.4975)">
<stop stop-color="#B366FF" style="stop-color:#B366FF;stop-color:color(display-p3 0.7000 0.4000 1.0000);stop-opacity:1;"/>
<stop offset="1" style="stop-color:var(--accent-primary);stop-opacity:1;"/>
</radialGradient>
<clipPath id="clip0_68_80">
<rect y="0.5" width="35" height="35" rx="12" fill="white" style="fill:white;fill-opacity:1;"/>
</clipPath>
</defs>
</svg>
