<svg width="32" height="32" viewBox="0 0 32 32" fill="none" xmlns="http://www.w3.org/2000/svg">
<path fill-rule="evenodd" clip-rule="evenodd" d="M17.7687 3.01256C17.1007 3.67062 16.4951 4.48774 15.9999 5.41406C15.5048 4.48783 14.8993 3.67078 14.2314 3.01279C13.3615 2.15581 12.3001 1.48591 11.1435 1.28669C9.9233 1.07651 8.69982 1.41474 7.72391 2.39064C6.74802 3.36652 6.40977 4.58998 6.61993 5.81016C6.81913 6.96675 7.48901 8.02817 8.34598 8.89804C8.49389 9.04817 8.64984 9.19516 8.81326 9.33845C8.25438 9.34524 7.75847 9.36106 7.321 9.39787C6.52649 9.46473 5.79709 9.60825 5.12272 9.97165C4.08191 10.5325 3.25697 11.4234 2.77757 12.5041C2.46695 13.2044 2.37979 13.9426 2.37407 14.7399C2.36855 15.51 2.44121 16.4544 2.52954 17.6025L2.8867 22.2456C2.96338 23.2426 3.02686 24.0681 3.13226 24.7399C3.24203 25.4395 3.4112 26.0784 3.75563 26.673C4.29211 27.5993 5.09488 28.3427 6.05954 28.8065C6.67888 29.1043 7.3288 29.224 8.03484 29.2798C8.71274 29.3334 9.54062 29.3334 10.5406 29.3333H21.4593C22.4593 29.3334 23.2872 29.3334 23.9651 29.2798C24.6711 29.224 25.321 29.1043 25.9404 28.8065C26.905 28.3427 27.7078 27.5993 28.2443 26.673C28.5887 26.0784 28.7579 25.4395 28.8677 24.7399C28.973 24.0681 29.0365 23.2427 29.1132 22.2457L29.4704 17.6025C29.5587 16.4545 29.6314 15.51 29.6258 14.7399C29.6201 13.9426 29.533 13.2044 29.2223 12.5041C28.7429 11.4234 27.918 10.5325 26.8772 9.97165C26.2028 9.60825 25.4734 9.46473 24.6789 9.39787C24.2414 9.36106 23.7455 9.34524 23.1865 9.33844C23.35 9.19508 23.5061 9.04802 23.6541 8.8978C24.5111 8.02791 25.181 6.96648 25.3802 5.80987C25.5904 4.58968 25.2521 3.36619 24.2762 2.39029C23.3003 1.41437 22.0768 1.07617 20.8566 1.28638C19.7 1.48563 18.6385 2.15556 17.7687 3.01256ZM21.3093 3.91433C21.6998 3.84706 22.0443 3.92964 22.3906 4.27592C22.7369 4.62218 22.8195 4.9667 22.7522 5.35721C22.674 5.81131 22.3682 6.40328 21.7544 7.02632C20.7742 8.02126 19.2194 8.87678 17.4687 9.19779C17.7897 7.44717 18.6452 5.8924 19.6401 4.9122C20.2632 4.29837 20.8552 3.99257 21.3093 3.91433ZM9.60952 4.27627C9.95582 3.92997 10.3004 3.84739 10.6908 3.91465C11.1449 3.99287 11.7369 4.29864 12.3599 4.91243C13.3548 5.89257 14.2103 7.44729 14.5313 9.1979C12.7805 8.87691 11.2258 8.02143 10.2456 7.02655C9.63186 6.40354 9.32611 5.81162 9.2479 5.35755C9.18065 4.96707 9.26323 4.62255 9.60952 4.27627ZM10.2445 12H14.6666V18H5.23466L5.19276 17.4553C5.09895 16.2357 5.03605 15.4036 5.04067 14.7591C5.04519 14.129 5.1166 13.8076 5.21518 13.5854C5.45488 13.045 5.86735 12.5996 6.38776 12.3192C6.60178 12.2038 6.91672 12.108 7.5446 12.0551C8.18688 12.0011 9.02137 12 10.2445 12ZM5.43979 20.6667L5.54148 21.9886C5.62323 23.0513 5.67957 23.7712 5.7667 24.3266C5.8513 24.8658 5.95067 25.1422 6.06319 25.3365C6.33143 25.7996 6.73281 26.1713 7.21515 26.4033C7.41748 26.5006 7.70077 26.5784 8.24488 26.6214C8.80529 26.6657 9.52737 26.6667 10.5932 26.6667H14.6666V20.6667H5.43979ZM17.3333 20.6667V26.6667H21.4067C22.4725 26.6667 23.1946 26.6657 23.755 26.6214C24.2991 26.5784 24.5824 26.5006 24.7848 26.4033C25.2671 26.1713 25.6685 25.7996 25.9367 25.3365C26.0492 25.1422 26.1486 24.8658 26.2332 24.3266C26.3203 23.7712 26.3767 23.0513 26.4584 21.9886L26.5601 20.6667H17.3333ZM26.7652 18L26.8072 17.4553C26.901 16.2357 26.9639 15.4036 26.9592 14.7591C26.9547 14.129 26.8833 13.8076 26.7847 13.5854C26.545 13.045 26.1326 12.5996 25.6122 12.3192C25.3981 12.2038 25.0832 12.108 24.4553 12.0551C23.813 12.0011 22.9785 12 21.7554 12H17.3333V18H26.7652Z" fill="#FF2DE0" style="fill:#FF2DE0;fill:color(display-p3 1.0000 0.1765 0.8784);fill-opacity:1;"/>
</svg>
