<svg width="32" height="32" viewBox="0 0 32 32" fill="none" xmlns="http://www.w3.org/2000/svg">
<g style="mix-blend-mode:difference">
<path d="M7.19276 12.0926H8.17135V15.0242H4.25698C4.25698 13.4051 5.57137 12.0926 7.19276 12.0926Z" fill="#00CB44" style="fill:#00CB44;fill:color(display-p3 0.0000 0.7956 0.2652);fill-opacity:1;"/>
<path d="M16.9787 18.933C18.6001 18.933 19.9145 17.6205 19.9145 16.0014H14.0429C14.0429 17.6205 15.3573 18.933 16.9787 18.933Z" fill="#00CB44" style="fill:#00CB44;fill:color(display-p3 0.0000 0.7956 0.2652);fill-opacity:1;"/>
<path d="M24.8074 18.933C26.4288 18.933 27.7432 17.6205 27.7432 16.0014H21.8717C21.8717 17.6205 23.1861 18.933 24.8074 18.933Z" fill="#00CB44" style="fill:#00CB44;fill:color(display-p3 0.0000 0.7956 0.2652);fill-opacity:1;"/>
<path d="M20.8931 25.7734C23.5954 25.7734 25.786 24.0234 25.786 21.8646H16.0001C16.0001 24.0234 18.1908 25.7734 20.8931 25.7734Z" fill="#00CB44" style="fill:#00CB44;fill:color(display-p3 0.0000 0.7956 0.2652);fill-opacity:1;"/>
<path fill-rule="evenodd" clip-rule="evenodd" d="M6.99694 1.97864H15.2171C17.9767 1.97864 20.3603 3.57264 21.4995 5.88743H25.0031C28.8674 5.88743 32 9.0156 32 12.8744V20.8874C32 27.0129 27.0272 31.9786 20.893 31.9786C17.4667 31.9786 14.4042 30.4282 12.3694 27.9988C11.9545 28.0458 11.5332 28.0698 11.107 28.0698C4.97279 28.0698 0 23.1041 0 16.9786V8.96561C0 5.10681 3.13264 1.97864 6.99694 1.97864ZM9.78926 16.9227C9.7876 15.2749 9.78593 13.6257 9.78593 11.9777C9.78593 8.61413 12.5165 5.88743 15.8849 5.88743H18.5182C17.7939 5.10578 16.7583 4.61707 15.6086 4.61707H6.6055C4.41663 4.61707 2.6422 6.38898 2.6422 8.57473V16.9786C2.6422 21.4856 6.17455 25.1687 10.6255 25.418C10.1335 24.3312 9.84047 23.1355 9.79283 21.8776L9.79258 21.8646C9.79258 21.8646 9.79258 21.8646 9.79258 21.8646L6.21416 21.8646C6.21416 20.0703 7.72764 18.5583 9.79042 18.099C9.79005 17.7071 9.78966 17.3146 9.78926 16.9227ZM25.3945 8.52587H16.3914C14.2026 8.52587 12.4281 10.2978 12.4281 12.4835V20.8874C12.4281 25.5558 16.218 29.3402 20.893 29.3402C25.568 29.3402 29.3578 25.5558 29.3578 20.8874V12.4835C29.3578 10.2978 27.5834 8.52587 25.3945 8.52587Z" fill="#00CB44" style="fill:#00CB44;fill:color(display-p3 0.0000 0.7956 0.2652);fill-opacity:1;"/>
</g>
</svg>
