<svg width="32" height="32" viewBox="0 0 32 32" fill="none" xmlns="http://www.w3.org/2000/svg">
<path fill-rule="evenodd" clip-rule="evenodd" d="M15.9999 1.33331C13.8257 1.33331 11.7841 2.1287 10.2972 3.77206C8.81777 5.4071 7.99992 7.75451 7.99992 10.6666C7.99992 12.3919 7.42541 14.0342 6.75297 15.8103C6.7108 15.9217 6.66797 16.0342 6.62473 16.1477C6.01792 17.7411 5.33325 19.5389 5.33325 21.3333C5.33325 25.4767 6.15951 27.5322 6.66659 28.4019V29.2C6.66659 30.01 7.32323 30.6666 8.13325 30.6666H23.8666C24.6766 30.6666 25.3333 30.01 25.3333 29.2V28.2392C25.6429 27.3806 26.6666 24.3207 26.6666 21.3333C26.6666 19.5389 25.9819 17.7411 25.3751 16.1477C25.3319 16.0341 25.289 15.9217 25.2469 15.8103C24.5744 14.0342 23.9999 12.3919 23.9999 10.6666C23.9999 7.75451 23.1821 5.4071 21.7026 3.77206C20.2157 2.1287 18.1742 1.33331 15.9999 1.33331ZM10.7728 9.0861C10.7094 9.53266 10.6728 10.0134 10.6673 10.5299C11.2083 12.8698 13.4354 14.6663 15.9993 14.6663C18.5651 14.6663 20.7935 12.8672 21.3325 10.5249C21.3268 10.0103 21.2903 9.53114 21.227 9.08599C21.2116 9.07504 21.1964 9.06372 21.1814 9.05202L16 5.02204L10.8186 9.05202C10.8035 9.06376 10.7882 9.07511 10.7728 9.0861ZM9.24687 16.7545C9.49068 16.1106 9.74782 15.4228 9.97527 14.6969C11.0362 15.8395 12.4258 16.6787 13.9717 17.0761L12.141 20.7376C11.8117 21.3962 12.0786 22.1971 12.7373 22.5264C13.3959 22.8558 14.1968 22.5888 14.5261 21.9302L16.0002 18.982L17.4743 21.9302C17.8036 22.5888 18.6045 22.8558 19.2632 22.5264C19.9218 22.1971 20.1888 21.3962 19.8594 20.7376L18.0285 17.0757C19.5742 16.678 20.9636 15.8387 22.0243 14.696C22.2518 15.4222 22.509 16.1103 22.753 16.7545L22.8117 16.9095C23.4827 18.6808 23.9999 20.0461 23.9999 21.3333C23.9999 24.1684 22.8679 27.2266 22.7621 27.504C22.6941 27.6824 22.6693 27.8516 22.6668 28H9.3324C9.32116 27.669 9.20014 27.3794 9.03379 27.1586C9.05109 27.1815 7.99992 25.8116 7.99992 21.3333C7.99992 20.046 8.51714 18.6808 9.18816 16.9095L9.24687 16.7545Z" fill="#FF4E2F" style="fill:#FF4E2F;fill:color(display-p3 1.0000 0.3059 0.1843);fill-opacity:1;"/>
</svg>
