<svg width="32" height="32" viewBox="0 0 32 32" fill="none" xmlns="http://www.w3.org/2000/svg">
<path fill-rule="evenodd" clip-rule="evenodd" d="M16.7315 1.8379C16.2533 1.70149 15.7465 1.70149 15.2684 1.8379C14.9288 1.93476 14.6592 2.09797 14.4401 2.25435C14.2433 2.3948 14.0273 2.57481 13.8094 2.75648L4.00247 10.9289L3.93662 10.9835C3.69386 11.1845 3.38841 11.4373 3.16862 11.7676C2.97836 12.0535 2.84511 12.3734 2.77618 12.7098C2.69655 13.0984 2.73221 13.4933 2.76054 13.8072L2.76814 13.8924L3.50115 22.322C3.58697 23.3091 3.65804 24.1266 3.76896 24.7918C3.88453 25.4849 4.05814 26.1172 4.40416 26.7052C4.94341 27.6214 5.74419 28.3556 6.7037 28.8134C7.31939 29.1072 7.96433 29.2254 8.66485 29.2805C9.33719 29.3333 10.1577 29.3333 11.1485 29.3333H20.8513C21.8421 29.3333 22.6626 29.3333 23.335 29.2805C24.0355 29.2254 24.6804 29.1072 25.2961 28.8134C26.2556 28.3556 27.0564 27.6214 27.5957 26.7052C27.9417 26.1172 28.1153 25.4849 28.2309 24.7918C28.3418 24.1266 28.4129 23.3091 28.4987 22.3221L29.2317 13.8924L29.2393 13.8072C29.2676 13.4933 29.3033 13.0984 29.2236 12.7098C29.1547 12.3734 29.0215 12.0535 28.8312 11.7676C28.6114 11.4373 28.306 11.1845 28.0632 10.9835L27.9974 10.9289L18.1905 2.75651C17.9725 2.57483 17.7566 2.39481 17.5598 2.25435C17.3407 2.09797 17.071 1.93476 16.7315 1.8379ZM15.4878 4.82905C15.7459 4.61391 15.884 4.5 15.9893 4.42485L15.9999 4.41732L16.0106 4.42485C16.1158 4.5 16.2539 4.61391 16.5121 4.82905L26.2902 12.9775C26.4577 13.1171 26.5423 13.1882 26.601 13.2429L26.6058 13.2473L26.6056 13.2538C26.6031 13.334 26.5939 13.4441 26.5751 13.6614L25.8466 22.0389C25.7551 23.0912 25.6921 23.8037 25.6005 24.3533C25.5116 24.8866 25.4107 25.1602 25.2975 25.3526C25.0279 25.8107 24.6275 26.1778 24.1477 26.4067C23.9462 26.5028 23.665 26.5796 23.1259 26.622C22.5705 26.6657 21.8552 26.6667 20.799 26.6667H17.3333V18.6667C17.3333 17.9303 16.7363 17.3333 15.9999 17.3333C15.2635 17.3333 14.6666 17.9303 14.6666 18.6667V26.6667H11.2009C10.1446 26.6667 9.42933 26.6657 8.87392 26.622C8.33487 26.5796 8.05359 26.5028 7.85211 26.4067C7.37235 26.1778 6.97196 25.8107 6.70234 25.3526C6.58911 25.1602 6.48824 24.8866 6.39931 24.3533C6.30768 23.8037 6.24476 23.0912 6.15326 22.0389L5.42478 13.6614C5.40589 13.4441 5.39678 13.334 5.39424 13.2538L5.39405 13.2473L5.39879 13.2429C5.4575 13.1882 5.54209 13.1171 5.70962 12.9775L15.4878 4.82905Z" fill="#B57800" style="fill:#B57800;fill:color(display-p3 0.7088 0.4725 0.0000);fill-opacity:1;"/>
</svg>
