<svg width="24" height="24" viewBox="0 0 24 24" fill="none" xmlns="http://www.w3.org/2000/svg">
<path fill-rule="evenodd" clip-rule="evenodd" d="M20.3284 2.91425C18.7663 1.35215 16.2336 1.35215 14.6715 2.91425L4.84252 12.7432C4.36184 13.2239 4.0116 13.8192 3.82485 14.4728L2.08786 20.5522C1.85078 21.382 2.61794 22.1492 3.44773 21.9121L9.52719 20.1751C10.1808 19.9884 10.7761 19.6381 11.2567 19.1575L21.0857 9.32846C22.6478 7.76637 22.6478 5.23371 21.0857 3.67161L20.3284 2.91425ZM16.0857 4.32846C16.8668 3.54741 18.1331 3.54741 18.9141 4.32846L19.6715 5.08582C20.4526 5.86687 20.4526 7.1332 19.6715 7.91425L18 9.58577L14.4142 5.99999L16.0857 4.32846ZM13 7.4142L6.25673 14.1575C6.01639 14.3978 5.84127 14.6954 5.7479 15.0222L4.45596 19.544L8.97775 18.2521C9.30456 18.1587 9.60218 17.9836 9.84252 17.7432L16.5858 11L13 7.4142Z" fill="#808080" style="fill:#808080;fill:color(display-p3 0.5020 0.5020 0.5020);fill-opacity:1;"/>
</svg>
