<svg width="32" height="32" viewBox="0 0 32 32" fill="none" xmlns="http://www.w3.org/2000/svg">
<path fill-rule="evenodd" clip-rule="evenodd" d="M16.6564 2.83715C16.2435 2.6307 15.7575 2.6307 15.3446 2.83715L0.976036 10.0214C-0.104973 10.5619 -0.104963 12.1046 0.976037 12.6451L5.33381 14.824V25.2649C5.33381 26.2799 6.00317 26.988 6.60075 27.4147C7.22742 27.8621 8.0503 28.2086 8.95424 28.477C10.779 29.0189 13.2477 29.3333 16.0005 29.3333C18.7533 29.3333 21.2219 29.0189 23.0467 28.477C23.9507 28.2086 24.7735 27.8621 25.4002 27.4147C25.9978 26.988 26.6671 26.2799 26.6671 25.2649V14.824L29.3338 13.4906V21.3332C29.3338 22.0696 29.9308 22.6665 30.6671 22.6665C31.4035 22.6665 32.0005 22.0696 32.0005 21.3332V11.3332C32.0005 10.7649 31.645 10.2797 31.1443 10.0878L16.6564 2.83715ZM24.0005 16.1573L16.6564 19.8293C16.2435 20.0358 15.7575 20.0358 15.3446 19.8293L8.00048 16.1573V25.1231C8.03025 25.1518 8.07757 25.1925 8.1502 25.2443C8.4402 25.4514 8.95065 25.6942 9.71338 25.9207C11.2219 26.3687 13.42 26.6666 16.0005 26.6666C18.581 26.6666 20.779 26.3687 22.2876 25.9207C23.0503 25.6942 23.5608 25.4514 23.8508 25.2443C23.9234 25.1925 23.9707 25.1518 24.0005 25.1231V16.1573ZM4.31523 11.3332L16.0005 5.49062L27.6857 11.3332L16.0005 17.1759L4.31523 11.3332ZM24.0453 25.0718L24.044 25.0745C24.044 25.0745 24.0409 25.079 24.0382 25.0825C24.0422 25.0753 24.0453 25.0718 24.0453 25.0718ZM7.96278 25.0825C7.95723 25.0754 7.95562 25.0718 7.95562 25.0718L7.95684 25.073C7.95684 25.073 7.96017 25.0778 7.96278 25.0825Z" fill="#2C98E1" style="fill:#2C98E1;fill:color(display-p3 0.1725 0.5961 0.8824);fill-opacity:1;"/>
</svg>
