<svg width="32" height="32" viewBox="0 0 32 32" fill="none" xmlns="http://www.w3.org/2000/svg">
<path fill-rule="evenodd" clip-rule="evenodd" d="M13.7588 5.6194C12.0284 5.04521 10.5031 5.39077 9.76615 6.12429C9.24423 6.64376 8.40001 6.64178 7.88054 6.11986C7.36106 5.59793 7.36305 4.75372 7.88497 4.23424C9.5607 2.56637 12.2577 2.31166 14.5986 3.08843C16.2778 3.64562 17.8977 4.75979 19.0795 6.43959C20.2614 4.7598 21.8812 3.64564 23.5604 3.0885C25.9015 2.31178 28.5984 2.56662 30.2741 4.23465C30.796 4.75416 30.798 5.59838 30.2785 6.12027C29.759 6.64216 28.9147 6.6441 28.3929 6.12459C27.6559 5.39097 26.1306 5.04536 24.4002 5.61949C23.6093 5.88188 22.8249 6.32646 22.1377 6.96666C25.4321 6.59923 28.1643 8.28715 29.3186 10.585C29.6491 11.243 29.3837 12.0444 28.7257 12.3749C28.0676 12.7055 27.2662 12.44 26.9357 11.782C26.1641 10.246 23.7953 8.77193 20.6467 10.0925C21.6255 14.1218 21.5788 17.9788 20.9944 21.1803C20.6099 23.2864 19.9787 25.1785 19.2057 26.6666H23.9049C24.6413 26.6666 25.2383 27.2636 25.2383 28C25.2383 28.7364 24.6413 29.3333 23.9049 29.3333H9.42873C8.69235 29.3333 8.0954 28.7364 8.0954 28C8.0954 27.2636 8.69235 26.6666 9.42873 26.6666H14.3458C13.7734 25.638 13.2036 24.5193 12.7366 23.3654C12.1898 22.0141 11.7543 20.545 11.646 19.0611C11.3425 19.2358 11.006 19.4472 10.6594 19.6964C9.42343 20.585 8.18129 21.8637 7.69445 23.5598C7.49129 24.2676 6.75281 24.6767 6.04501 24.4736C5.33721 24.2704 4.92812 23.5319 5.13127 22.8241C5.81712 20.4346 7.46089 18.7569 8.89357 17.6847C7.33495 17.6673 5.88029 18.0511 4.79915 18.8604C4.20963 19.3016 3.374 19.1815 2.93274 18.5919C2.49147 18.0024 2.61165 17.1668 3.20117 16.7255C6.0837 14.5679 10.1838 14.6437 13.4406 15.9096C14.0891 16.1616 14.451 16.8255 14.3506 17.4842C14.1305 18.9277 14.4934 20.5979 15.2085 22.365C15.6515 23.4597 16.2061 24.536 16.7784 25.5528C17.4037 24.3838 18.0002 22.733 18.371 20.7014C18.9152 17.7205 18.941 14.0809 17.9463 10.29C14.5824 8.63796 12.0301 10.1761 11.2234 11.782C10.8928 12.44 10.0914 12.7055 9.43339 12.3749C8.77537 12.0444 8.5099 11.243 8.84046 10.585C9.99471 8.28721 12.7269 6.59915 16.0213 6.96656C15.334 6.32638 14.5497 5.88181 13.7588 5.6194Z" fill="#00CB44" style="fill:#00CB44;fill:color(display-p3 0.0000 0.7956 0.2652);fill-opacity:1;"/>
</svg>
