<svg width="18" height="4" viewBox="0 0 18 4" fill="none" xmlns="http://www.w3.org/2000/svg">
<path d="M0.462891 2.00586C0.462891 1.56055 0.607422 1.18164 0.896484 0.869141C1.18555 0.556641 1.5957 0.400391 2.12695 0.400391C2.66602 0.400391 3.08008 0.556641 3.36914 0.869141C3.6582 1.18164 3.80273 1.56055 3.80273 2.00586C3.80273 2.45117 3.6582 2.83008 3.36914 3.14258C3.08008 3.44727 2.66602 3.59961 2.12695 3.59961C1.5957 3.59961 1.18555 3.44336 0.896484 3.13086C0.607422 2.81836 0.462891 2.44336 0.462891 2.00586Z" fill="#808080" style="fill:#808080;fill:color(display-p3 0.5020 0.5020 0.5020);fill-opacity:1;"/>
<path d="M7.33008 2.00586C7.33008 1.56055 7.47461 1.18164 7.76367 0.869141C8.05273 0.556641 8.46289 0.400391 8.99414 0.400391C9.5332 0.400391 9.94727 0.556641 10.2363 0.869141C10.5254 1.18164 10.6699 1.56055 10.6699 2.00586C10.6699 2.45117 10.5254 2.83008 10.2363 3.14258C9.94727 3.44727 9.5332 3.59961 8.99414 3.59961C8.46289 3.59961 8.05273 3.44336 7.76367 3.13086C7.47461 2.81836 7.33008 2.44336 7.33008 2.00586Z" fill="#808080" style="fill:#808080;fill:color(display-p3 0.5020 0.5020 0.5020);fill-opacity:1;"/>
<path d="M14.1973 2.00586C14.1973 1.56055 14.3418 1.18164 14.6309 0.869141C14.9199 0.556641 15.3301 0.400391 15.8613 0.400391C16.4004 0.400391 16.8145 0.556641 17.1035 0.869141C17.3926 1.18164 17.5371 1.56055 17.5371 2.00586C17.5371 2.45117 17.3926 2.83008 17.1035 3.14258C16.8145 3.44727 16.4004 3.59961 15.8613 3.59961C15.3301 3.59961 14.9199 3.44336 14.6309 3.13086C14.3418 2.81836 14.1973 2.44336 14.1973 2.00586Z" fill="#808080" style="fill:#808080;fill:color(display-p3 0.5020 0.5020 0.5020);fill-opacity:1;"/>
</svg>
