<svg width="90" height="29" viewBox="0 0 90 29" fill="none" xmlns="http://www.w3.org/2000/svg">
<path d="M33.9552 10.0014C34.5644 9.49028 35.2461 9.39313 35.9626 9.58969C36.7142 9.79589 37.4967 10.3327 38.1201 11.0756C38.7434 11.8185 39.1362 12.6823 39.2088 13.4583C39.278 14.1981 39.0639 14.8526 38.4547 15.3638C37.8455 15.8749 37.1638 15.9721 36.4473 15.7755C35.6957 15.5693 34.9132 15.0325 34.2898 14.2896C33.6665 13.5467 33.2737 12.6829 33.2011 11.9069C33.132 11.1671 33.346 10.5126 33.9552 10.0014Z" stroke="#808080" style="stroke:#808080;stroke:color(display-p3 0.5020 0.5020 0.5020);stroke-opacity:1;" stroke-width="2"/>
<path d="M41.2363 3.8919C41.8454 3.38074 42.5272 3.28358 43.2437 3.48015C43.9953 3.68635 44.7778 4.22318 45.4011 4.96608C46.0245 5.70899 46.4173 6.5728 46.4899 7.34878C46.559 8.08851 46.345 8.74305 45.7358 9.25421C45.1266 9.76537 44.4448 9.86252 43.7284 9.66596C42.9768 9.45976 42.1943 8.92293 41.5709 8.18002C40.9475 7.43712 40.5547 6.57331 40.4822 5.79733C40.413 5.0576 40.6271 4.40306 41.2363 3.8919Z" stroke="#808080" style="stroke:#808080;stroke:color(display-p3 0.5020 0.5020 0.5020);stroke-opacity:1;" stroke-width="2"/>
<path d="M1.25 8.12782H8.46085C10.1367 8.12782 11.6349 9.17248 12.2142 10.745L17.2858 24.5106C17.8651 26.0832 19.3633 27.1278 21.0391 27.1278H32.25" stroke="#808080" style="stroke:#808080;stroke:color(display-p3 0.5020 0.5020 0.5020);stroke-opacity:1;" stroke-width="2" stroke-linecap="round"/>
<path d="M88.75 8.12782H81.5391C79.8633 8.12782 78.3651 9.17248 77.7858 10.745L72.7142 24.5106C72.1349 26.0832 70.6367 27.1278 68.9609 27.1278H57.75" stroke="#808080" style="stroke:#808080;stroke:color(display-p3 0.5020 0.5020 0.5020);stroke-opacity:1;" stroke-width="2" stroke-linecap="round"/>
<path d="M40.25 23.6278C47.4633 22.1852 53.1098 14.1701 53.75 7.12782" stroke="#808080" style="stroke:#808080;stroke:color(display-p3 0.5020 0.5020 0.5020);stroke-opacity:1;" stroke-width="2" stroke-linecap="round"/>
</svg>
